<svg width="218" height="63" viewBox="0 0 218 63" fill="none" xmlns="http://www.w3.org/2000/svg">
<path d="M147.458 25L140.783 50.3164H134L137.487 37.0956C137.489 37.0914 137.491 37.0863 137.49 37.0811L140.675 25H147.458Z" fill="url(#paint0_linear_2_28)"/>
<path d="M155.246 25L148.571 50.3164H141.787L145.204 37.3566L148.462 25H155.246Z" fill="url(#paint1_linear_2_28)"/>
<path d="M162 50.3164H155.22L154.015 45.752V45.7483L152.372 39.516L155.764 26.6567L162 50.3164Z" fill="url(#paint2_linear_2_28)"/>
<g style="mix-blend-mode:screen" opacity="0.4">
<g style="mix-blend-mode:screen">
<path d="M146.597 25.7446L134.861 49.5718L141.145 25.7446H146.597Z" fill="white"/>
</g>
</g>
<g style="mix-blend-mode:screen" opacity="0.4">
<g style="mix-blend-mode:screen">
<path d="M154.384 25.7446L142.649 49.5718L148.933 25.7446H154.384Z" fill="white"/>
</g>
</g>
<g style="mix-blend-mode:multiply" opacity="0.3">
<g style="mix-blend-mode:multiply">
<path d="M155.764 26.6567L154.015 45.7501L152.372 39.516L155.764 26.6567Z" fill="black"/>
</g>
</g>
<g style="mix-blend-mode:multiply" opacity="0.3">
<g style="mix-blend-mode:multiply">
<path d="M155.246 25L148.571 50.3164H141.787C142.919 50.2382 144.047 50.2047 145.179 50.1451L146.873 50.0855L148.389 50.0442C148.892 47.9854 149.41 45.9304 149.944 43.8793L150.77 40.7148L151.616 37.5539C152.191 35.4504 152.773 33.3507 153.373 31.2546C153.679 30.2122 153.977 29.1623 154.292 28.1236C154.607 27.0849 154.915 26.0346 155.246 25Z" fill="black"/>
</g>
</g>
<g style="mix-blend-mode:multiply" opacity="0.3">
<g style="mix-blend-mode:multiply">
<path d="M147.458 25L140.783 50.3164H134C135.132 50.2382 136.26 50.2047 137.392 50.1451L139.086 50.0855L140.602 50.0442C141.104 47.9854 141.622 45.9304 142.156 43.8793L142.983 40.7148L143.828 37.5539C144.403 35.4504 144.985 33.3507 145.586 31.2546C145.891 30.2122 146.19 29.1623 146.505 28.1236C146.819 27.0849 147.128 26.0346 147.458 25Z" fill="black"/>
</g>
</g>
<g style="mix-blend-mode:multiply" opacity="0.3">
<g style="mix-blend-mode:multiply">
<path d="M145.602 25C144.782 25.1001 143.962 25.1638 143.139 25.2122C142.729 25.2383 142.318 25.2643 141.908 25.2792C141.568 25.2941 141.228 25.309 140.888 25.3165C140.783 25.752 140.678 26.1843 140.57 26.6195L140.179 28.1351C140.052 28.6374 139.909 29.1403 139.776 29.6429C139.642 30.1456 139.502 30.6482 139.359 31.147C139.216 31.6459 139.076 32.1522 138.924 32.6474C138.771 33.1426 138.628 33.6452 138.472 34.1403C138.164 35.1306 137.843 36.1098 137.49 37.0815L140.675 25.0004L145.602 25Z" fill="black"/>
</g>
</g>
<g style="mix-blend-mode:multiply" opacity="0.3">
<g style="mix-blend-mode:multiply">
<path d="M153.497 25C152.658 25.1001 151.819 25.1638 150.98 25.2122C150.56 25.2415 150.141 25.2638 149.721 25.2792C149.372 25.2941 149.025 25.309 148.675 25.3198L148.348 26.6493L147.951 28.1981L147.538 29.739C147.401 30.2569 147.258 30.7665 147.112 31.2766C146.965 31.7866 146.822 32.3004 146.667 32.8105C146.511 33.3205 146.368 33.8309 146.206 34.3336C145.894 35.3499 145.564 36.3589 145.204 37.3566L148.463 25H153.497Z" fill="black"/>
</g>
</g>
<g style="mix-blend-mode:multiply" opacity="0.3">
<g style="mix-blend-mode:multiply">
<path d="M158.608 50.141C159.629 50.1004 160.646 50.0666 161.666 50.0409C161.421 49.1809 161.183 48.3208 160.945 47.4571C160.671 46.478 160.404 45.495 160.144 44.5081C159.613 42.5428 159.101 40.5659 158.593 38.5927L157.846 35.6213L157.121 32.6429C156.886 31.6489 156.647 30.6553 156.428 29.6575C156.202 28.656 155.97 27.6616 155.764 26.6567L162 50.3164H155.22C156.348 50.2322 157.48 50.1973 158.608 50.141Z" fill="black"/>
</g>
</g>
<path d="M12.085 20.3125H1.85547V16.0156H27.1973V20.3125H16.9678V50H12.085V20.3125ZM34.1064 45.5078C33.5693 44.5801 33.138 43.4896 32.8125 42.2363C32.5033 40.9831 32.3486 39.3473 32.3486 37.3291C32.3486 35.3109 32.7799 33.4554 33.6426 31.7627C34.5215 30.0537 35.6608 28.654 37.0605 27.5635C39.7786 25.4639 43.1559 24.4141 47.1924 24.4141C49.292 24.4141 50.8789 24.4629 51.9531 24.5605C51.9531 24.5605 52.7425 24.6419 54.3213 24.8047V50H49.9268L49.7314 47.0947C48.7549 48.3968 47.2656 49.3652 45.2637 50C44.4987 50.2441 43.7093 50.3662 42.8955 50.3662C42.098 50.3662 41.3086 50.2848 40.5273 50.1221C39.7461 49.9593 38.9648 49.6908 38.1836 49.3164C37.4186 48.9421 36.6862 48.4456 35.9863 47.8271C35.2865 47.1924 34.6598 46.4193 34.1064 45.5078ZM49.4385 28.3936C48.3968 28.2633 47.3551 28.1982 46.3135 28.1982C45.2881 28.1982 44.1895 28.3854 43.0176 28.7598C41.8457 29.1178 40.8447 29.6875 40.0146 30.4688C38.2894 32.0964 37.4268 34.5785 37.4268 37.915C37.4268 41.0726 38.1673 43.4082 39.6484 44.9219C40.7715 46.0449 42.1224 46.6064 43.7012 46.6064C45.7357 46.6064 47.4121 45.8659 48.7305 44.3848C49.056 44.0104 49.292 43.6768 49.4385 43.3838V28.3936ZM68.3105 50.3906C66.276 50.3906 64.2171 50.2441 62.1338 49.9512V45.6299C64.2497 46.1344 66.3981 46.3867 68.5791 46.3867C72.9411 46.3867 75.1221 45.4671 75.1221 43.6279C75.1221 42.9281 74.9512 42.4072 74.6094 42.0654C74.1048 41.5283 73.3073 40.9912 72.2168 40.4541L68.6523 38.8184C66.3411 37.6628 64.8438 36.735 64.1602 36.0352C62.8743 34.7331 62.2314 33.1868 62.2314 31.3965C62.2314 29.3783 63.1673 27.7344 65.0391 26.4648C67.0573 25.0977 69.8893 24.4141 73.5352 24.4141C75.3743 24.4141 77.2298 24.5443 79.1016 24.8047V28.9795C77.0508 28.6051 75.2604 28.418 73.7305 28.418C72.2168 28.418 71.0368 28.5156 70.1904 28.7109C69.3604 28.9062 68.7337 29.1504 68.3105 29.4434C67.6432 29.8991 67.3096 30.4932 67.3096 31.2256C67.3096 31.9417 67.5374 32.5277 67.9932 32.9834C68.4652 33.4229 69.1976 33.903 70.1904 34.4238L73.7793 36.1572C76.123 37.3779 77.6286 38.3138 78.2959 38.9648C79.5654 40.2018 80.2002 41.7562 80.2002 43.6279C80.2002 45.6299 79.1911 47.2412 77.1729 48.4619C75.057 49.7477 72.1029 50.3906 68.3105 50.3906ZM87.5 13.6963H92.3828V36.084L102.588 24.8047H108.398L97.5342 36.2305L108.96 50H103.003L92.3828 37.1582V50H87.5V13.6963ZM118.311 50.3906C116.276 50.3906 114.217 50.2441 112.134 49.9512V45.6299C114.25 46.1344 116.398 46.3867 118.579 46.3867C122.941 46.3867 125.122 45.4671 125.122 43.6279C125.122 42.9281 124.951 42.4072 124.609 42.0654C124.105 41.5283 123.307 40.9912 122.217 40.4541L118.652 38.8184C116.341 37.6628 114.844 36.735 114.16 36.0352C112.874 34.7331 112.231 33.1868 112.231 31.3965C112.231 29.3783 113.167 27.7344 115.039 26.4648C117.057 25.0977 119.889 24.4141 123.535 24.4141C125.374 24.4141 127.23 24.5443 129.102 24.8047V28.9795C127.051 28.6051 125.26 28.418 123.73 28.418C122.217 28.418 121.037 28.5156 120.19 28.7109C119.36 28.9062 118.734 29.1504 118.311 29.4434C117.643 29.8991 117.31 30.4932 117.31 31.2256C117.31 31.9417 117.537 32.5277 117.993 32.9834C118.465 33.4229 119.198 33.903 120.19 34.4238L123.779 36.1572C126.123 37.3779 127.629 38.3138 128.296 38.9648C129.565 40.2018 130.2 41.7562 130.2 43.6279C130.2 45.6299 129.191 47.2412 127.173 48.4619C125.057 49.7477 122.103 50.3906 118.311 50.3906Z" fill="url(#paint3_linear_2_28)"/>
<path d="M168.033 59.7656H163.15V24.8047H167.545L167.74 27.6855C168.717 26.3835 170.214 25.415 172.232 24.7803C173.014 24.5361 173.803 24.4141 174.601 24.4141C175.414 24.4141 176.212 24.5036 176.993 24.6826C177.774 24.8454 178.548 25.1221 179.312 25.5127C180.077 25.887 180.81 26.3916 181.51 27.0264C182.21 27.6449 182.828 28.418 183.365 29.3457C184.537 31.3477 185.123 33.8298 185.123 36.792C185.123 41.3167 183.561 44.7754 180.436 47.168C177.669 49.3001 174.299 50.3662 170.328 50.3662H169.107C168.717 50.3662 168.359 50.3581 168.033 50.3418V59.7656ZM168.033 46.3867C168.489 46.5169 169.384 46.582 170.719 46.582C172.053 46.582 173.307 46.3949 174.479 46.0205C175.65 45.6462 176.643 45.0684 177.457 44.2871C179.182 42.627 180.045 40.1286 180.045 36.792C180.045 33.6507 179.296 31.3314 177.799 29.834C176.692 28.7272 175.341 28.1738 173.746 28.1738C171.744 28.1738 170.084 28.9144 168.766 30.3955C168.424 30.7699 168.18 31.1035 168.033 31.3965V46.3867ZM197.232 59.7656H192.35V24.8047H196.744L196.939 27.6855C197.916 26.3835 199.413 25.415 201.432 24.7803C202.213 24.5361 203.002 24.4141 203.8 24.4141C204.614 24.4141 205.411 24.5036 206.192 24.6826C206.974 24.8454 207.747 25.1221 208.512 25.5127C209.277 25.887 210.009 26.3916 210.709 27.0264C211.409 27.6449 212.027 28.418 212.564 29.3457C213.736 31.3477 214.322 33.8298 214.322 36.792C214.322 41.3167 212.76 44.7754 209.635 47.168C206.868 49.3001 203.499 50.3662 199.527 50.3662H198.307C197.916 50.3662 197.558 50.3581 197.232 50.3418V59.7656ZM197.232 46.3867C197.688 46.5169 198.583 46.582 199.918 46.582C201.253 46.582 202.506 46.3949 203.678 46.0205C204.85 45.6462 205.842 45.0684 206.656 44.2871C208.382 42.627 209.244 40.1286 209.244 36.792C209.244 33.6507 208.495 31.3314 206.998 29.834C205.891 28.7272 204.54 28.1738 202.945 28.1738C200.943 28.1738 199.283 28.9144 197.965 30.3955C197.623 30.7699 197.379 31.1035 197.232 31.3965V46.3867Z" fill="url(#paint4_linear_2_28)"/>
<defs>
<linearGradient id="paint0_linear_2_28" x1="140.729" y1="25.2785" x2="140.729" y2="50.6455" gradientUnits="userSpaceOnUse">
<stop stop-color="#00F3FF"/>
<stop offset="0.238" stop-color="#00EFFC"/>
<stop offset="0.44" stop-color="#00E5F4"/>
<stop offset="0.629" stop-color="#00D3E7"/>
<stop offset="0.81" stop-color="#00BAD4"/>
<stop offset="0.983" stop-color="#009BBC"/>
<stop offset="1" stop-color="#0098BA"/>
</linearGradient>
<linearGradient id="paint1_linear_2_28" x1="148.517" y1="25.2785" x2="148.517" y2="50.6455" gradientUnits="userSpaceOnUse">
<stop stop-color="#00F3FF"/>
<stop offset="0.238" stop-color="#00EFFC"/>
<stop offset="0.44" stop-color="#00E5F4"/>
<stop offset="0.629" stop-color="#00D3E7"/>
<stop offset="0.81" stop-color="#00BAD4"/>
<stop offset="0.983" stop-color="#009BBC"/>
<stop offset="1" stop-color="#0098BA"/>
</linearGradient>
<linearGradient id="paint2_linear_2_28" x1="159.468" y1="50.624" x2="148.526" y2="45.0919" gradientUnits="userSpaceOnUse">
<stop stop-color="#3E6896"/>
<stop offset="0.247" stop-color="#355881"/>
<stop offset="0.75" stop-color="#1F324E"/>
<stop offset="1" stop-color="#131D32"/>
</linearGradient>
<linearGradient id="paint3_linear_2_28" x1="67" y1="0.693" x2="67" y2="63.819" gradientUnits="userSpaceOnUse">
<stop stop-color="#00F3FF"/>
<stop offset="0.238" stop-color="#00EFFC"/>
<stop offset="0.44" stop-color="#00E5F4"/>
<stop offset="0.629" stop-color="#00D3E7"/>
<stop offset="0.81" stop-color="#00BAD4"/>
<stop offset="0.983" stop-color="#009BBC"/>
<stop offset="1" stop-color="#0098BA"/>
</linearGradient>
<linearGradient id="paint4_linear_2_28" x1="188.5" y1="0.693" x2="188.5" y2="63.819" gradientUnits="userSpaceOnUse">
<stop stop-color="#00F3FF"/>
<stop offset="0.238" stop-color="#00EFFC"/>
<stop offset="0.44" stop-color="#00E5F4"/>
<stop offset="0.629" stop-color="#00D3E7"/>
<stop offset="0.81" stop-color="#00BAD4"/>
<stop offset="0.983" stop-color="#009BBC"/>
<stop offset="1" stop-color="#0098BA"/>
</linearGradient>
</defs>
</svg>
